<?xml version="1.0" standalone="no"?>
<!DOCTYPE svg PUBLIC "-//W3C//DTD SVG 20010904//EN"
 "http://www.w3.org/TR/2001/REC-SVG-20010904/DTD/svg10.dtd">
<svg version="1.0" xmlns="http://www.w3.org/2000/svg"
 width="139.000000pt" height="135.000000pt" viewBox="0 0 139.000000 135.000000"
 preserveAspectRatio="xMidYMid meet">

<g transform="translate(0.000000,135.000000) scale(0.100000,-0.100000)"
fill="#000000" stroke="none">
<path d="M654 1340 c-30 -12 -54 -49 -54 -84 0 -21 11 -39 41 -67 34 -31 40
-43 37 -70 -3 -31 -6 -33 -68 -49 -70 -17 -116 -39 -166 -77 l-31 -23 -27 21
c-24 19 -26 26 -21 63 13 96 -82 151 -145 84 -22 -23 -27 -77 -10 -108 12 -23
65 -42 96 -34 27 7 74 -18 74 -39 0 -8 -17 -47 -39 -89 -21 -41 -42 -98 -46
-126 l-7 -52 -41 0 c-34 0 -46 6 -73 35 -26 29 -39 35 -71 35 -66 0 -106 -60
-80 -123 29 -68 119 -71 153 -6 13 26 20 29 64 29 49 0 49 0 55 -37 9 -57 32
-113 64 -162 23 -34 28 -49 20 -63 -14 -26 -48 -41 -81 -34 -33 7 -82 -14 -92
-39 -36 -95 57 -174 130 -111 24 20 28 30 27 77 -1 57 16 89 47 89 10 0 43
-15 73 -34 31 -18 78 -39 104 -45 85 -22 93 -28 93 -62 0 -25 -9 -41 -40 -69
-22 -20 -40 -46 -40 -58 0 -40 20 -72 54 -89 46 -22 92 -4 112 43 17 41 6 77
-37 116 -48 44 -36 108 20 108 32 1 128 39 169 68 38 28 53 28 80 -1 16 -17
22 -36 22 -71 0 -36 5 -52 25 -71 43 -43 106 -29 131 30 28 68 -18 123 -95
112 -34 -4 -43 -1 -66 23 l-27 28 36 59 c19 32 43 88 52 126 l17 67 43 0 c36
0 47 -5 60 -26 9 -14 30 -32 45 -40 25 -12 33 -13 63 0 90 38 67 166 -30 166
-29 0 -43 -7 -69 -36 -28 -31 -38 -35 -71 -32 l-39 3 -18 70 c-10 39 -24 79
-31 90 -7 11 -22 36 -34 56 l-22 36 20 26 c18 23 28 26 71 24 44 -2 54 1 75
26 13 16 24 41 24 57 0 38 -37 78 -77 86 -27 5 -37 1 -64 -25 -28 -29 -31 -37
-27 -76 5 -36 2 -48 -16 -64 -29 -28 -35 -27 -93 12 -28 19 -72 39 -99 46
-100 26 -99 25 -102 60 -3 27 3 39 37 70 23 21 41 47 41 59 0 38 -19 71 -49
87 -33 17 -46 18 -77 5z m24 -420 c3 -124 -1 -146 -29 -155 -18 -6 -38 9 -109
80 -49 48 -86 93 -84 99 11 29 143 87 189 83 l30 -2 3 -105z m171 72 c88 -44
88 -49 -4 -142 -128 -129 -145 -123 -145 50 0 64 3 120 8 124 12 13 84 -3 141
-32z m-349 -143 c91 -82 114 -113 100 -139 -10 -18 -21 -20 -137 -20 l-126 0
6 49 c7 62 61 171 84 171 3 0 35 -27 73 -61z m506 -13 c13 -29 27 -74 30 -99
l7 -47 -131 0 c-123 0 -131 1 -137 21 -4 11 -5 22 -3 24 1 3 41 43 87 89 97
98 107 99 147 12z m-404 -190 c4 -6 8 -15 8 -20 0 -14 -165 -176 -180 -176
-21 0 -57 57 -81 128 -30 90 -27 92 124 85 73 -3 125 -10 129 -17z m438 -11
c0 -59 -65 -185 -95 -185 -7 0 -50 36 -94 81 -74 74 -92 104 -74 122 3 4 64 7
135 7 l128 0 0 -25z m-372 -47 c14 -14 17 -225 3 -247 -12 -18 -73 -7 -140 27
-89 45 -89 50 10 147 86 85 105 95 127 73z m171 -74 c45 -48 80 -92 78 -98 -5
-19 -130 -76 -172 -79 l-40 -2 -3 119 c-4 179 15 187 137 60z m286 -174 c4 -6
-5 -10 -19 -10 -14 0 -26 5 -26 10 0 6 9 10 19 10 11 0 23 -4 26 -10z"/>
</g>
</svg>
